# xmcd
#
# Track frame offsets:
#	150
#	16384
#	35966
#	53377
#	63606
#	80742
#	97849
#	114326
#	136233
#	149553
#	165610
#	189020
#
# Disc length: 2730 seconds
#
# Revision: 1
# Processed by: cddbd v1.5PL3 Copyright (c) Steve Scherf et al.
# Submitted via: audiograbber 1.82.02
#
DISCID=9c0aa80c
DTITLE=Hungerford, Phil - Semi-Brave
DYEAR=2002
DGENRE=
TTITLE0=The Jig
TTITLE1=The Great Divide
TTITLE2=Fairweather Girl
TTITLE3=Gee!! I Love You Still
TTITLE4=For Georgie (R.I.P)
TTITLE5=The Rage
TTITLE6=Mistress Nicotine
TTITLE7=Sweet Mary (Reprise)
TTITLE8=Bureaucratic Wriggle
TTITLE9=Easy Pickin's
TTITLE10=Carnarvon
TTITLE11=I'm Only Joking
EXTD=
EXTT0=
EXTT1=
EXTT2=
EXTT3=
EXTT4=
EXTT5=
EXTT6=
EXTT7=
EXTT8=
EXTT9=
EXTT10=
EXTT11=
PLAYORDER=
